<svg width="32" height="32" viewBox="0 0 32 32" fill="none" xmlns="http://www.w3.org/2000/svg">
<path d="M5.33333 17.3333C6.06667 17.3333 6.66667 16.7333 6.66667 15.9999C6.66667 15.2666 6.06667 14.6666 5.33333 14.6666C4.6 14.6666 4 15.2666 4 15.9999C4 16.7333 4.6 17.3333 5.33333 17.3333ZM5.33333 22.6666C6.06667 22.6666 6.66667 22.0666 6.66667 21.3333C6.66667 20.5999 6.06667 19.9999 5.33333 19.9999C4.6 19.9999 4 20.5999 4 21.3333C4 22.0666 4.6 22.6666 5.33333 22.6666ZM5.33333 11.9999C6.06667 11.9999 6.66667 11.3999 6.66667 10.6666C6.66667 9.93325 6.06667 9.33325 5.33333 9.33325C4.6 9.33325 4 9.93325 4 10.6666C4 11.3999 4.6 11.9999 5.33333 11.9999ZM10.6667 17.3333H26.6667C27.4 17.3333 28 16.7333 28 15.9999C28 15.2666 27.4 14.6666 26.6667 14.6666H10.6667C9.93333 14.6666 9.33333 15.2666 9.33333 15.9999C9.33333 16.7333 9.93333 17.3333 10.6667 17.3333ZM10.6667 22.6666H26.6667C27.4 22.6666 28 22.0666 28 21.3333C28 20.5999 27.4 19.9999 26.6667 19.9999H10.6667C9.93333 19.9999 9.33333 20.5999 9.33333 21.3333C9.33333 22.0666 9.93333 22.6666 10.6667 22.6666ZM9.33333 10.6666C9.33333 11.3999 9.93333 11.9999 10.6667 11.9999H26.6667C27.4 11.9999 28 11.3999 28 10.6666C28 9.93325 27.4 9.33325 26.6667 9.33325H10.6667C9.93333 9.33325 9.33333 9.93325 9.33333 10.6666ZM5.33333 17.3333C6.06667 17.3333 6.66667 16.7333 6.66667 15.9999C6.66667 15.2666 6.06667 14.6666 5.33333 14.6666C4.6 14.6666 4 15.2666 4 15.9999C4 16.7333 4.6 17.3333 5.33333 17.3333ZM5.33333 22.6666C6.06667 22.6666 6.66667 22.0666 6.66667 21.3333C6.66667 20.5999 6.06667 19.9999 5.33333 19.9999C4.6 19.9999 4 20.5999 4 21.3333C4 22.0666 4.6 22.6666 5.33333 22.6666ZM5.33333 11.9999C6.06667 11.9999 6.66667 11.3999 6.66667 10.6666C6.66667 9.93325 6.06667 9.33325 5.33333 9.33325C4.6 9.33325 4 9.93325 4 10.6666C4 11.3999 4.6 11.9999 5.33333 11.9999ZM10.6667 17.3333H26.6667C27.4 17.3333 28 16.7333 28 15.9999C28 15.2666 27.4 14.6666 26.6667 14.6666H10.6667C9.93333 14.6666 9.33333 15.2666 9.33333 15.9999C9.33333 16.7333 9.93333 17.3333 10.6667 17.3333ZM10.6667 22.6666H26.6667C27.4 22.6666 28 22.0666 28 21.3333C28 20.5999 27.4 19.9999 26.6667 19.9999H10.6667C9.93333 19.9999 9.33333 20.5999 9.33333 21.3333C9.33333 22.0666 9.93333 22.6666 10.6667 22.6666ZM9.33333 10.6666C9.33333 11.3999 9.93333 11.9999 10.6667 11.9999H26.6667C27.4 11.9999 28 11.3999 28 10.6666C28 9.93325 27.4 9.33325 26.6667 9.33325H10.6667C9.93333 9.33325 9.33333 9.93325 9.33333 10.6666Z" fill="#C4C4C4"/>
</svg>
