<svg width="27" height="21" viewBox="0 0 27 21" fill="none" xmlns="http://www.w3.org/2000/svg">
<path d="M1.0625 20.875V19.3125C3.20833 18.5208 4.89583 17.2812 6.125 15.5938C7.35417 13.8854 7.96875 12.1146 7.96875 10.2812C7.96875 9.88542 7.90625 9.59375 7.78125 9.40625C7.71875 9.28125 7.63542 9.21875 7.53125 9.21875C7.42708 9.21875 7.26042 9.30208 7.03125 9.46875C6.36458 9.94792 5.53125 10.1875 4.53125 10.1875C3.32292 10.1875 2.26042 9.70833 1.34375 8.75C0.447917 7.77083 0 6.61458 0 5.28125C0 3.86458 0.520833 2.63542 1.5625 1.59375C2.60417 0.53125 3.88542 0 5.40625 0C7.13542 0 8.63542 0.71875 9.90625 2.15625C11.1979 3.57292 11.8438 5.48958 11.8438 7.90625C11.8438 10.7188 10.9792 13.2396 9.25 15.4688C7.52083 17.6979 4.79167 19.5 1.0625 20.875ZM16.0938 20.875V19.3125C18.2396 18.5208 19.9271 17.2812 21.1562 15.5938C22.3854 13.8854 23 12.1146 23 10.2812C23 9.88542 22.9375 9.59375 22.8125 9.40625C22.75 9.28125 22.6667 9.21875 22.5625 9.21875C22.4583 9.21875 22.2917 9.30208 22.0625 9.46875C21.3958 9.94792 20.5625 10.1875 19.5625 10.1875C18.3542 10.1875 17.2917 9.70833 16.375 8.75C15.4792 7.77083 15.0312 6.61458 15.0312 5.28125C15.0312 3.86458 15.5521 2.63542 16.5938 1.59375C17.6354 0.53125 18.9167 0 20.4375 0C22.1667 0 23.6667 0.71875 24.9375 2.15625C26.2292 3.57292 26.875 5.48958 26.875 7.90625C26.875 10.7188 26.0104 13.2396 24.2812 15.4688C22.5521 17.6979 19.8229 19.5 16.0938 20.875Z" fill="#72AED1"/>
</svg>
