<svg width="27" height="21" viewBox="0 0 27 21" fill="none" xmlns="http://www.w3.org/2000/svg">
<path d="M25.8125 0V1.53125C23.6458 2.32292 21.9479 3.57292 20.7188 5.28125C19.4896 6.96875 18.875 8.72917 18.875 10.5625C18.875 10.9583 18.9375 11.25 19.0625 11.4375C19.1458 11.5625 19.2396 11.625 19.3438 11.625C19.4479 11.625 19.6042 11.5521 19.8125 11.4062C20.4792 10.9271 21.3229 10.6875 22.3438 10.6875C23.5312 10.6875 24.5833 11.1771 25.5 12.1562C26.4167 13.1146 26.875 14.2604 26.875 15.5938C26.875 16.9896 26.3438 18.2188 25.2812 19.2812C24.2396 20.3438 22.9688 20.875 21.4688 20.875C19.7188 20.875 18.2083 20.1562 16.9375 18.7188C15.6667 17.2812 15.0312 15.3542 15.0312 12.9375C15.0312 10.125 15.8958 7.60417 17.625 5.375C19.3542 3.14583 22.0833 1.35417 25.8125 0ZM10.7812 0V1.53125C8.61458 2.32292 6.91667 3.57292 5.6875 5.28125C4.45833 6.96875 3.84375 8.72917 3.84375 10.5625C3.84375 10.9583 3.90625 11.25 4.03125 11.4375C4.11458 11.5625 4.20833 11.625 4.3125 11.625C4.41667 11.625 4.57292 11.5521 4.78125 11.4062C5.44792 10.9271 6.29167 10.6875 7.3125 10.6875C8.5 10.6875 9.55208 11.1771 10.4688 12.1562C11.3854 13.1146 11.8438 14.2604 11.8438 15.5938C11.8438 16.9896 11.3125 18.2188 10.25 19.2812C9.20833 20.3438 7.9375 20.875 6.4375 20.875C4.6875 20.875 3.17708 20.1562 1.90625 18.7188C0.635417 17.2812 0 15.3542 0 12.9375C0 10.125 0.864583 7.60417 2.59375 5.375C4.32292 3.14583 7.05208 1.35417 10.7812 0Z" fill="#72AED1"/>
</svg>
