<svg width="24" height="24" viewBox="0 0 24 24" fill="none" xmlns="http://www.w3.org/2000/svg">
<path d="M3 20.4999C2.71667 20.4999 2.47933 20.4039 2.288 20.2119C2.09667 20.0199 2.00067 19.7826 2 19.4999V13.4999C2 13.2166 2.096 12.9792 2.288 12.7879C2.48 12.5966 2.71733 12.5006 3 12.4999H9C9.28333 12.4999 9.521 12.5959 9.713 12.7879C9.905 12.9799 10.0007 13.2172 10 13.4999V19.4999C10 19.7832 9.904 20.0209 9.712 20.2129C9.52 20.4049 9.28267 20.5006 9 20.4999H3ZM4 18.4999H8V14.4999H4V18.4999ZM14.725 9.9999H7.275C6.89167 9.9999 6.60433 9.8289 6.413 9.4869C6.22167 9.1449 6.22567 8.80757 6.425 8.4749L10.15 2.3999C10.35 2.06657 10.6333 1.8999 11 1.8999C11.3667 1.8999 11.65 2.06657 11.85 2.3999L15.575 8.4749C15.775 8.80824 15.7793 9.1459 15.588 9.4879C15.3967 9.8299 15.109 10.0006 14.725 9.9999ZM9.05 7.9999H12.95L11 4.8499L9.05 7.9999ZM20.875 22.2499L18.925 20.2999C18.575 20.5332 18.196 20.7082 17.788 20.8249C17.38 20.9416 16.9507 20.9999 16.5 20.9999C15.25 20.9999 14.1877 20.5626 13.313 19.6879C12.4383 18.8132 12.0007 17.7506 12 16.4999C11.9993 15.2492 12.437 14.1869 13.313 13.3129C14.189 12.4389 15.2513 12.0012 16.5 11.9999C17.7487 11.9986 18.8113 12.4362 19.688 13.3129C20.5647 14.1896 21.002 15.2519 21 16.4999C21 16.9332 20.9417 17.3542 20.825 17.7629C20.7083 18.1716 20.5417 18.5506 20.325 18.8999L22.275 20.8499C22.4583 21.0332 22.55 21.2666 22.55 21.5499C22.55 21.8332 22.4583 22.0666 22.275 22.2499C22.0917 22.4332 21.8583 22.5249 21.575 22.5249C21.2917 22.5249 21.0583 22.4332 20.875 22.2499ZM16.5 18.9999C17.2 18.9999 17.7917 18.7582 18.275 18.2749C18.7583 17.7916 19 17.1999 19 16.4999C19 15.7999 18.7583 15.2082 18.275 14.7249C17.7917 14.2416 17.2 13.9999 16.5 13.9999C15.8 13.9999 15.2083 14.2416 14.725 14.7249C14.2417 15.2082 14 15.7999 14 16.4999C14 17.1999 14.2417 17.7916 14.725 18.2749C15.2083 18.7582 15.8 18.9999 16.5 18.9999Z" fill="#3D5A80"/>
</svg>
