<svg width="24" height="24" viewBox="0 0 24 24" fill="none" xmlns="http://www.w3.org/2000/svg">
<path d="M12 2.92944L11.7188 3.04644L2.71875 6.79644L2.25 7.00869V8.99994H3.75V17.2499H2.25V20.9999H21.75V17.2499H20.25V8.99994H21.75V7.00794L21.2812 6.79794L12.2812 3.04644L12 2.92944ZM12 4.57044L19.0312 7.49994H4.96875L12 4.57044ZM5.25 8.99994H6.75V17.2499H5.25V8.99994ZM8.25 8.99994H9.75V17.2499H8.25V8.99994ZM11.25 8.99994H12.75V17.2499H11.25V8.99994ZM14.25 8.99994H15.75V17.2499H14.25V8.99994ZM17.25 8.99994H18.75V17.2499H17.25V8.99994ZM3.75 18.7499H20.25V19.4999H3.75V18.7499Z" fill="#646F75"/>
</svg>
