<svg width="132" height="46" viewBox="0 0 132 46" fill="none" xmlns="http://www.w3.org/2000/svg">
<path d="M14.784 27.8149C12.3451 27.8149 10.0949 27.2491 8.03314 26.1177C5.99657 24.9611 4.37486 23.3646 3.168 21.328C1.98629 19.2663 1.39543 16.9531 1.39543 14.3886C1.39543 11.824 1.98629 9.52343 3.168 7.48686C4.37486 5.45029 5.99657 3.86629 8.03314 2.73486C10.0949 1.57829 12.3451 1 14.784 1C17.248 1 19.4983 1.57829 21.5349 2.73486C23.5966 3.86629 25.2183 5.45029 26.4 7.48686C27.5817 9.52343 28.1726 11.824 28.1726 14.3886C28.1726 16.9531 27.5817 19.2663 26.4 21.328C25.2183 23.3646 23.5966 24.9611 21.5349 26.1177C19.4983 27.2491 17.248 27.8149 14.784 27.8149ZM14.784 24.0811C16.5189 24.0811 18.0651 23.6914 19.4229 22.912C20.7806 22.1074 21.8366 20.976 22.5909 19.5177C23.3703 18.0343 23.76 16.3246 23.76 14.3886C23.76 12.4526 23.3703 10.7554 22.5909 9.29714C21.8366 7.83886 20.7806 6.72 19.4229 5.94057C18.0651 5.16114 16.5189 4.77143 14.784 4.77143C13.0491 4.77143 11.5029 5.16114 10.1451 5.94057C8.78743 6.72 7.71886 7.83886 6.93943 9.29714C6.18514 10.7554 5.808 12.4526 5.808 14.3886C5.808 16.3246 6.18514 18.0343 6.93943 19.5177C7.71886 20.976 8.78743 22.1074 10.1451 22.912C11.5029 23.6914 13.0491 24.0811 14.784 24.0811Z" fill="black"/>
<path d="M30.9702 14.3886C30.9702 11.824 31.5611 9.52343 32.7428 7.48686C33.9496 5.45029 35.5713 3.86629 37.6079 2.73486C39.6696 1.57829 41.9199 1 44.3588 1C47.1496 1 49.6262 1.69143 51.7885 3.07429C53.9759 4.432 55.5599 6.368 56.5405 8.88229H51.3736C50.6948 7.49943 49.7519 6.46857 48.5451 5.78972C47.3382 5.11086 45.9428 4.77143 44.3588 4.77143C42.6239 4.77143 41.0776 5.16114 39.7199 5.94057C38.3622 6.72 37.2936 7.83886 36.5142 9.29714C35.7599 10.7554 35.3828 12.4526 35.3828 14.3886C35.3828 16.3246 35.7599 18.0217 36.5142 19.48C37.2936 20.9383 38.3622 22.0697 39.7199 22.8743C41.0776 23.6537 42.6239 24.0434 44.3588 24.0434C45.9428 24.0434 47.3382 23.704 48.5451 23.0251C49.7519 22.3463 50.6948 21.3154 51.3736 19.9326H56.5405C55.5599 22.4469 53.9759 24.3829 51.7885 25.7406C49.6262 27.0983 47.1496 27.7771 44.3588 27.7771C41.8948 27.7771 39.6445 27.2114 37.6079 26.08C35.5713 24.9234 33.9496 23.3269 32.7428 21.2903C31.5611 19.2537 30.9702 16.9531 30.9702 14.3886Z" fill="black"/>
<path d="M65.8724 4.80914V12.5029H74.9239V16.0103H65.8724V24.0434H76.0553V27.5509H61.573V1.30171H76.0553V4.80914H65.8724Z" fill="black"/>
<path d="M97.1532 22.1954H86.1783L84.2926 27.5509H79.8046L89.1955 1.30171H94.1738L103.565 27.5509H99.0389L97.1532 22.1954ZM95.9463 18.688L91.6846 6.50629L87.3852 18.688H95.9463Z" fill="black"/>
<path d="M129.183 27.5509H124.883L111.947 7.97714V27.5509H107.648V1.30171H111.947L124.883 20.8377V1.30171H129.183V27.5509Z" fill="black"/>
<path d="M36.9286 44.4647H40.8729V45.3604H35.8286V34.3761H36.9286V44.4647Z" fill="black"/>
<path d="M44.957 34.3761V45.3604H43.857V34.3761H44.957Z" fill="black"/>
<path d="M54.0008 39.6875C54.6189 39.8028 55.1427 40.117 55.5722 40.6304C56.0017 41.1437 56.2165 41.7409 56.2165 42.4218C56.2165 42.977 56.0751 43.4799 55.7922 43.9304C55.5198 44.3704 55.1165 44.7213 54.5822 44.9832C54.0479 45.2347 53.4089 45.3604 52.6651 45.3604H48.8622V34.3761H52.5551C53.6656 34.3761 54.5089 34.6328 55.0851 35.1461C55.6717 35.6594 55.9651 36.3247 55.9651 37.1418C55.9651 37.8228 55.7817 38.378 55.4151 38.8075C55.0484 39.2266 54.577 39.5199 54.0008 39.6875ZM49.9622 39.2318H52.5237C53.2675 39.2318 53.8384 39.059 54.2365 38.7132C54.6451 38.357 54.8494 37.8699 54.8494 37.2518C54.8494 36.6442 54.6451 36.1675 54.2365 35.8218C53.8384 35.4761 53.2517 35.3032 52.4765 35.3032H49.9622V39.2318ZM52.5865 44.4332C53.3827 44.4332 54.0008 44.2447 54.4408 43.8675C54.8913 43.4904 55.1165 42.9718 55.1165 42.3118C55.1165 41.6518 54.8808 41.128 54.4094 40.7404C53.9484 40.3423 53.3251 40.1432 52.5394 40.1432H49.9622V44.4332H52.5865Z" fill="black"/>
<path d="M65.4986 45.3604L62.78 40.7718H60.7529V45.3604H59.6529V34.3761H62.9529C64.1786 34.3761 65.1058 34.6694 65.7343 35.2561C66.3734 35.8428 66.6929 36.6128 66.6929 37.5661C66.6929 38.3623 66.4624 39.0432 66.0015 39.609C65.551 40.1642 64.8805 40.5256 63.99 40.6932L66.8186 45.3604H65.4986ZM60.7529 39.8761H62.9686C63.8277 39.8761 64.472 39.6666 64.9015 39.2475C65.3415 38.8285 65.5615 38.268 65.5615 37.5661C65.5615 36.8432 65.352 36.288 64.9329 35.9004C64.5139 35.5023 63.8539 35.3032 62.9529 35.3032H60.7529V39.8761Z" fill="black"/>
<path d="M76.6544 42.7518H71.6573L70.6987 45.3604H69.5358L73.543 34.5175H74.7844L78.7758 45.3604H77.613L76.6544 42.7518ZM76.3244 41.8404L74.1558 35.9004L71.9873 41.8404H76.3244Z" fill="black"/>
<path d="M87.8012 45.3604L85.0827 40.7718H83.0555V45.3604H81.9555V34.3761H85.2555C86.4812 34.3761 87.4084 34.6694 88.037 35.2561C88.676 35.8428 88.9955 36.6128 88.9955 37.5661C88.9955 38.3623 88.7651 39.0432 88.3041 39.609C87.8536 40.1642 87.1831 40.5256 86.2927 40.6932L89.1212 45.3604H87.8012ZM83.0555 39.8761H85.2712C86.1303 39.8761 86.7746 39.6666 87.2041 39.2475C87.6441 38.8285 87.8641 38.268 87.8641 37.5661C87.8641 36.8432 87.6546 36.288 87.2355 35.9004C86.8165 35.5023 86.1565 35.3032 85.2555 35.3032H83.0555V39.8761Z" fill="black"/>
<path d="M99.8527 34.3761L96.3327 41.0861V45.3604H95.2328V41.0861L91.6813 34.3761H92.9227L95.7828 40.0804L98.627 34.3761H99.8527Z" fill="black"/>
<path d="M132 40.6461H111.048M20.9524 40.6461H0M14.784 27.8149C12.3451 27.8149 10.0949 27.2491 8.03314 26.1177C5.99657 24.9611 4.37486 23.3646 3.168 21.328C1.98629 19.2663 1.39543 16.9531 1.39543 14.3886C1.39543 11.824 1.98629 9.52343 3.168 7.48686C4.37486 5.45029 5.99657 3.86629 8.03314 2.73486C10.0949 1.57829 12.3451 1 14.784 1C17.248 1 19.4983 1.57829 21.5349 2.73486C23.5966 3.86629 25.2183 5.45029 26.4 7.48686C27.5817 9.52343 28.1726 11.824 28.1726 14.3886C28.1726 16.9531 27.5817 19.2663 26.4 21.328C25.2183 23.3646 23.5966 24.9611 21.5349 26.1177C19.4983 27.2491 17.248 27.8149 14.784 27.8149ZM14.784 24.0811C16.5189 24.0811 18.0651 23.6914 19.4229 22.912C20.7806 22.1074 21.8366 20.976 22.5909 19.5177C23.3703 18.0343 23.76 16.3246 23.76 14.3886C23.76 12.4526 23.3703 10.7554 22.5909 9.29714C21.8366 7.83886 20.7806 6.72 19.4229 5.94057C18.0651 5.16114 16.5189 4.77143 14.784 4.77143C13.0491 4.77143 11.5029 5.16114 10.1451 5.94057C8.78743 6.72 7.71886 7.83886 6.93943 9.29714C6.18514 10.7554 5.808 12.4526 5.808 14.3886C5.808 16.3246 6.18514 18.0343 6.93943 19.5177C7.71886 20.976 8.78743 22.1074 10.1451 22.912C11.5029 23.6914 13.0491 24.0811 14.784 24.0811ZM30.9702 14.3886C30.9702 11.824 31.5611 9.52343 32.7428 7.48686C33.9496 5.45029 35.5713 3.86629 37.6079 2.73486C39.6696 1.57829 41.9199 1 44.3588 1C47.1496 1 49.6262 1.69143 51.7885 3.07429C53.9759 4.432 55.5599 6.368 56.5405 8.88229H51.3736C50.6948 7.49943 49.7519 6.46857 48.5451 5.78972C47.3382 5.11086 45.9428 4.77143 44.3588 4.77143C42.6239 4.77143 41.0776 5.16114 39.7199 5.94057C38.3622 6.72 37.2936 7.83886 36.5142 9.29714C35.7599 10.7554 35.3828 12.4526 35.3828 14.3886C35.3828 16.3246 35.7599 18.0217 36.5142 19.48C37.2936 20.9383 38.3622 22.0697 39.7199 22.8743C41.0776 23.6537 42.6239 24.0434 44.3588 24.0434C45.9428 24.0434 47.3382 23.704 48.5451 23.0251C49.7519 22.3463 50.6948 21.3154 51.3736 19.9326H56.5405C55.5599 22.4469 53.9759 24.3829 51.7885 25.7406C49.6262 27.0983 47.1496 27.7771 44.3588 27.7771C41.8948 27.7771 39.6445 27.2114 37.6079 26.08C35.5713 24.9234 33.9496 23.3269 32.7428 21.2903C31.5611 19.2537 30.9702 16.9531 30.9702 14.3886ZM65.8724 4.80914V12.5029H74.9239V16.0103H65.8724V24.0434H76.0553V27.5509H61.573V1.30171H76.0553V4.80914H65.8724ZM97.1532 22.1954H86.1783L84.2926 27.5509H79.8046L89.1955 1.30171H94.1738L103.565 27.5509H99.0389L97.1532 22.1954ZM95.9463 18.688L91.6846 6.50629L87.3852 18.688H95.9463ZM129.183 27.5509H124.883L111.947 7.97714V27.5509H107.648V1.30171H111.947L124.883 20.8377V1.30171H129.183V27.5509ZM36.9286 44.4647H40.8729V45.3604H35.8286V34.3761H36.9286V44.4647ZM44.957 34.3761V45.3604H43.857V34.3761H44.957ZM54.0008 39.6875C54.6189 39.8028 55.1427 40.117 55.5722 40.6304C56.0017 41.1437 56.2165 41.7409 56.2165 42.4218C56.2165 42.977 56.0751 43.4799 55.7922 43.9304C55.5198 44.3704 55.1165 44.7213 54.5822 44.9832C54.0479 45.2347 53.4089 45.3604 52.6651 45.3604H48.8622V34.3761H52.5551C53.6656 34.3761 54.5089 34.6328 55.0851 35.1461C55.6717 35.6594 55.9651 36.3247 55.9651 37.1418C55.9651 37.8228 55.7817 38.378 55.4151 38.8075C55.0484 39.2266 54.577 39.5199 54.0008 39.6875ZM49.9622 39.2318H52.5237C53.2675 39.2318 53.8384 39.059 54.2365 38.7132C54.6451 38.357 54.8494 37.8699 54.8494 37.2518C54.8494 36.6442 54.6451 36.1675 54.2365 35.8218C53.8384 35.4761 53.2517 35.3032 52.4765 35.3032H49.9622V39.2318ZM52.5865 44.4332C53.3827 44.4332 54.0008 44.2447 54.4408 43.8675C54.8913 43.4904 55.1165 42.9718 55.1165 42.3118C55.1165 41.6518 54.8808 41.128 54.4094 40.7404C53.9484 40.3423 53.3251 40.1432 52.5394 40.1432H49.9622V44.4332H52.5865ZM65.4986 45.3604L62.78 40.7718H60.7529V45.3604H59.6529V34.3761H62.9529C64.1786 34.3761 65.1058 34.6694 65.7343 35.2561C66.3734 35.8428 66.6929 36.6128 66.6929 37.5661C66.6929 38.3623 66.4624 39.0432 66.0015 39.609C65.551 40.1642 64.8805 40.5256 63.99 40.6932L66.8186 45.3604H65.4986ZM60.7529 39.8761H62.9686C63.8277 39.8761 64.472 39.6666 64.9015 39.2475C65.3415 38.8285 65.5615 38.268 65.5615 37.5661C65.5615 36.8432 65.352 36.288 64.9329 35.9004C64.5139 35.5023 63.8539 35.3032 62.9529 35.3032H60.7529V39.8761ZM76.6544 42.7518H71.6573L70.6987 45.3604H69.5358L73.543 34.5175H74.7844L78.7758 45.3604H77.613L76.6544 42.7518ZM76.3244 41.8404L74.1558 35.9004L71.9873 41.8404H76.3244ZM87.8012 45.3604L85.0827 40.7718H83.0555V45.3604H81.9555V34.3761H85.2555C86.4812 34.3761 87.4084 34.6694 88.037 35.2561C88.676 35.8428 88.9955 36.6128 88.9955 37.5661C88.9955 38.3623 88.7651 39.0432 88.3041 39.609C87.8536 40.1642 87.1831 40.5256 86.2927 40.6932L89.1212 45.3604H87.8012ZM83.0555 39.8761H85.2712C86.1303 39.8761 86.7746 39.6666 87.2041 39.2475C87.6441 38.8285 87.8641 38.268 87.8641 37.5661C87.8641 36.8432 87.6546 36.288 87.2355 35.9004C86.8165 35.5023 86.1565 35.3032 85.2555 35.3032H83.0555V39.8761ZM99.8527 34.3761L96.3327 41.0861V45.3604H95.2328V41.0861L91.6813 34.3761H92.9227L95.7828 40.0804L98.627 34.3761H99.8527Z" stroke="black"/>
</svg>
