<svg width="32" height="32" viewBox="0 0 32 32" fill="none" xmlns="http://www.w3.org/2000/svg">
<path d="M20 25.3333C20 22.3866 16.4187 19.9999 12 19.9999C7.58133 19.9999 4 22.3866 4 25.3333M28 13.3333L22.6667 18.6666L20 15.9999M12 15.9999C10.5855 15.9999 9.22896 15.438 8.22876 14.4378C7.22857 13.4376 6.66667 12.0811 6.66667 10.6666C6.66667 9.2521 7.22857 7.89554 8.22876 6.89535C9.22896 5.89515 10.5855 5.33325 12 5.33325C13.4145 5.33325 14.771 5.89515 15.7712 6.89535C16.7714 7.89554 17.3333 9.2521 17.3333 10.6666C17.3333 12.0811 16.7714 13.4376 15.7712 14.4378C14.771 15.438 13.4145 15.9999 12 15.9999Z" stroke="#293241" stroke-width="3" stroke-linecap="round" stroke-linejoin="round"/>
</svg>
