<svg width="24" height="24" viewBox="0 0 24 24" fill="none" xmlns="http://www.w3.org/2000/svg">
<path d="M19.31 18.9L22.39 22L21 23.39L17.88 20.32C17.19 20.75 16.37 21 15.5 21C13 21 11 19 11 16.5C11 14 13 12 15.5 12C18 12 20 14 20 16.5C20 17.38 19.75 18.21 19.31 18.9ZM15.5 19C16.163 19 16.7989 18.7366 17.2678 18.2678C17.7366 17.7989 18 17.163 18 16.5C18 15.837 17.7366 15.2011 17.2678 14.7322C16.7989 14.2634 16.163 14 15.5 14C14.837 14 14.2011 14.2634 13.7322 14.7322C13.2634 15.2011 13 15.837 13 16.5C13 17.163 13.2634 17.7989 13.7322 18.2678C14.2011 18.7366 14.837 19 15.5 19ZM21 4V6H3V4H21ZM3 16V14H9V16H3ZM3 11V9H21V11H18.97C17.96 10.37 16.77 10 15.5 10C14.23 10 13.04 10.37 12.03 11H3Z" fill="#293241"/>
</svg>
