<svg width="32" height="32" viewBox="0 0 32 32" fill="none" xmlns="http://www.w3.org/2000/svg">
<path d="M5.33334 24C4.95556 24 4.63912 23.872 4.384 23.616C4.12889 23.36 4.00089 23.0436 4 22.6667C3.99912 22.2898 4.12712 21.9733 4.384 21.7173C4.64089 21.4613 4.95734 21.3333 5.33334 21.3333H20C20.3778 21.3333 20.6947 21.4613 20.9507 21.7173C21.2067 21.9733 21.3342 22.2898 21.3333 22.6667C21.3325 23.0436 21.2044 23.3604 20.9493 23.6173C20.6942 23.8742 20.3778 24.0018 20 24H5.33334ZM25.2 21.7333L20.4 16.9333C20.1333 16.6667 20 16.3556 20 16C20 15.6444 20.1333 15.3333 20.4 15.0667L25.2 10.2667C25.4444 10.0222 25.7556 9.9 26.1333 9.9C26.5111 9.9 26.8222 10.0222 27.0667 10.2667C27.3111 10.5111 27.4333 10.8222 27.4333 11.2C27.4333 11.5778 27.3111 11.8889 27.0667 12.1333L23.2 16L27.0667 19.8667C27.3111 20.1111 27.4333 20.4222 27.4333 20.8C27.4333 21.1778 27.3111 21.4889 27.0667 21.7333C26.8222 21.9778 26.5111 22.1 26.1333 22.1C25.7556 22.1 25.4444 21.9778 25.2 21.7333ZM5.33334 17.3333C4.95556 17.3333 4.63912 17.2053 4.384 16.9493C4.12889 16.6933 4.00089 16.3769 4 16C3.99912 15.6231 4.12712 15.3067 4.384 15.0507C4.64089 14.7947 4.95734 14.6667 5.33334 14.6667H16C16.3778 14.6667 16.6947 14.7947 16.9507 15.0507C17.2067 15.3067 17.3342 15.6231 17.3333 16C17.3324 16.3769 17.2044 16.6938 16.9493 16.9507C16.6942 17.2076 16.3778 17.3351 16 17.3333H5.33334ZM5.33334 10.6667C4.95556 10.6667 4.63912 10.5387 4.384 10.2827C4.12889 10.0267 4.00089 9.71022 4 9.33333C3.99912 8.95644 4.12712 8.64 4.384 8.384C4.64089 8.128 4.95734 8 5.33334 8H20C20.3778 8 20.6947 8.128 20.9507 8.384C21.2067 8.64 21.3342 8.95644 21.3333 9.33333C21.3325 9.71022 21.2044 10.0271 20.9493 10.284C20.6942 10.5409 20.3778 10.6684 20 10.6667H5.33334Z" fill="white"/>
</svg>
