<svg width="24" height="24" viewBox="0 0 24 24" fill="none" xmlns="http://www.w3.org/2000/svg">
<path d="M4 20C3.45 20 2.97933 19.8043 2.588 19.413C2.19667 19.0217 2.00067 18.5507 2 18V6C2 5.45 2.196 4.97933 2.588 4.588C2.98 4.19667 3.45067 4.00067 4 4H10L12 6H20C20.55 6 21.021 6.196 21.413 6.588C21.805 6.98 22.0007 7.45067 22 8V11.3C21.6833 11.1667 21.3543 11.0793 21.013 11.038C20.6717 10.9967 20.334 11.0007 20 11.05V8H11.175L9.175 6H4V18H12.1L12 18.1V20H4ZM14 22V18.925L19.525 13.425C19.675 13.275 19.8417 13.1667 20.025 13.1C20.2083 13.0333 20.3917 13 20.575 13C20.775 13 20.9667 13.0377 21.15 13.113C21.3333 13.1883 21.5 13.3007 21.65 13.45L22.575 14.375C22.7083 14.525 22.8127 14.6917 22.888 14.875C22.9633 15.0583 23.0007 15.2417 23 15.425C22.9993 15.6083 22.966 15.796 22.9 15.988C22.834 16.18 22.7257 16.3507 22.575 16.5L17.075 22H14ZM15.5 20.5H16.45L19.475 17.45L19.025 16.975L18.55 16.525L15.5 19.55V20.5ZM19.025 16.975L18.55 16.525L19.475 17.45L19.025 16.975Z" fill="#646F75"/>
</svg>
