<svg width="32" height="32" viewBox="0 0 32 32" fill="none" xmlns="http://www.w3.org/2000/svg">
<path d="M12.5 11.9373C12.6519 11.8483 12.7624 11.7028 12.8074 11.5326C12.8524 11.3624 12.8282 11.1813 12.7402 11.0289C12.6522 10.8764 12.5074 10.765 12.3375 10.7188C12.1676 10.6727 11.9864 10.6957 11.8333 10.7827C9.91919 11.8877 8.52242 13.708 7.9503 15.8429C7.37819 17.9778 7.67761 20.2525 8.78267 22.1667C9.88774 24.0808 11.7079 25.4776 13.8429 26.0497C15.9778 26.6218 18.2525 26.3224 20.1667 25.2173C20.3185 25.1283 20.429 24.9828 20.474 24.8126C20.519 24.6424 20.4949 24.4613 20.4069 24.3089C20.3188 24.1564 20.1741 24.045 20.0042 23.9988C19.8343 23.9527 19.653 23.9757 19.5 24.0627C18.7038 24.5223 17.825 24.8206 16.9135 24.9406C16.0021 25.0605 15.0759 24.9998 14.1879 24.7618C13.3 24.5239 12.4675 24.1133 11.7382 23.5537C11.0089 22.994 10.397 22.2962 9.93734 21.5C9.47772 20.7039 9.1794 19.825 9.05944 18.9135C8.93948 18.0021 9.00022 17.0759 9.23818 16.1879C9.47615 15.3 9.88668 14.4676 10.4463 13.7382C11.006 13.0089 11.7038 12.397 12.5 11.9373Z" fill="#72AED1"/>
<path d="M16.6666 11.36C16.6666 11.1832 16.5963 11.0136 16.4713 10.8886C16.3463 10.7636 16.1767 10.6934 15.9999 10.6934C15.8231 10.6934 15.6535 10.7636 15.5285 10.8886C15.4035 11.0136 15.3333 11.1832 15.3333 11.36V18C15.3333 18.117 15.3641 18.232 15.4226 18.3333C15.4811 18.4347 15.5652 18.5188 15.6666 18.5774L20.9026 21.6014C21.0559 21.6898 21.238 21.7137 21.4089 21.6678C21.5798 21.6219 21.7255 21.51 21.8139 21.3567C21.9023 21.2034 21.9262 21.0213 21.8803 20.8504C21.8344 20.6794 21.7225 20.5338 21.5693 20.4454L16.6666 17.6147V11.36Z" fill="#72AED1"/>
<path fill-rule="evenodd" clip-rule="evenodd" d="M14.0001 2.66675C13.8233 2.66675 13.6537 2.73699 13.5287 2.86201C13.4037 2.98703 13.3334 3.1566 13.3334 3.33341C13.3334 3.51023 13.4037 3.67979 13.5287 3.80482C13.6537 3.92984 13.8233 4.00008 14.0001 4.00008H15.3334V6.68541C12.7731 6.83611 10.3396 7.85078 8.43065 9.56359C6.52167 11.2764 5.25009 13.5861 4.82373 16.1151C4.39737 18.6442 4.84144 21.2431 6.08336 23.4871C7.32528 25.7311 9.29161 27.4875 11.661 28.4693C14.0304 29.451 16.6628 29.6001 19.1278 28.8922C21.5929 28.1842 23.745 26.661 25.2324 24.5716C26.7197 22.4821 27.4544 19.95 27.3163 17.389C27.1782 14.8279 26.1755 12.3895 24.4721 10.4721L24.4854 10.4587L25.8054 9.13875C25.8691 9.07725 25.9199 9.00369 25.9549 8.92235C25.9898 8.84102 26.0082 8.75354 26.0089 8.66502C26.0097 8.5765 25.9928 8.48871 25.9593 8.40678C25.9258 8.32485 25.8763 8.25041 25.8137 8.18782C25.7511 8.12522 25.6767 8.07572 25.5948 8.0422C25.5128 8.00868 25.425 7.99181 25.3365 7.99258C25.248 7.99335 25.1605 8.01174 25.0792 8.04668C24.9978 8.08162 24.9243 8.13241 24.8628 8.19608L23.5428 9.51475L23.5294 9.52808C21.6277 7.83428 19.2093 6.83299 16.6668 6.68675V4.00008H18.0001C18.1769 4.00008 18.3465 3.92984 18.4715 3.80482C18.5965 3.67979 18.6668 3.51023 18.6668 3.33341C18.6668 3.1566 18.5965 2.98703 18.4715 2.86201C18.3465 2.73699 18.1769 2.66675 18.0001 2.66675H14.0001ZM6.00011 18.0001C6.00011 15.3479 7.05368 12.8044 8.92905 10.929C10.8044 9.05365 13.3479 8.00008 16.0001 8.00008C18.6523 8.00008 21.1958 9.05365 23.0712 10.929C24.9465 12.8044 26.0001 15.3479 26.0001 18.0001C26.0001 20.6522 24.9465 23.1958 23.0712 25.0711C21.1958 26.9465 18.6523 28.0001 16.0001 28.0001C13.3479 28.0001 10.8044 26.9465 8.92905 25.0711C7.05368 23.1958 6.00011 20.6522 6.00011 18.0001Z" fill="#72AED1"/>
</svg>
